<svg width="72" height="36" viewBox="0 0 72 36" fill="none" xmlns="http://www.w3.org/2000/svg">
<rect width="72" height="36" rx="6" fill="#FAFAFA"/>
<path fill-rule="evenodd" clip-rule="evenodd" d="M17.4172 12L12 23.9846H18.4851L19.2891 22.0737H21.1268L21.9308 23.9846H29.0691V22.5262L29.7051 23.9846H33.3976L34.0337 22.4953V23.9846H48.8795L50.6846 22.1234L52.3749 23.9846L60 24L54.5657 18.0258L60 12H52.4932L50.736 13.8268L49.0989 12H32.9486L31.5618 15.0933L30.1425 12H23.6709V13.4088L22.951 12H17.4172ZM18.6736 13.701H21.8348L25.428 21.8278V13.701H28.8909L31.6663 19.5279L34.2241 13.701H37.6697V22.3008H35.5731L35.556 15.5621L32.4994 22.3008H30.6239L27.5502 15.5621V22.3008H23.237L22.4193 20.3728H18.0016L17.1856 22.2991H14.8747L18.6736 13.701ZM48.1111 13.701H39.5859V22.2957H47.9791L50.6843 19.4473L53.2917 22.2957H56.0174L52.0557 18.0233L56.0174 13.701H53.41L50.7185 16.5167L48.1111 13.701ZM20.2109 15.1569L18.7554 18.5913H21.6646L20.2109 15.1569ZM41.6908 17.0525V15.4826V15.4811H47.0102L49.3313 17.9918L46.9074 20.5161H41.6908V18.8023H46.3416V17.0525H41.6908Z" fill="#898E90"/>
</svg>
