<svg width="50" height="36" viewBox="0 0 50 36" fill="none" xmlns="http://www.w3.org/2000/svg">
<rect width="50" height="36" rx="6" fill="#FAFAFA"/>
<path d="M30.1143 10C34.4692 10 38 13.5818 38 18C37.9999 22.418 34.4691 26 30.1143 26C28.1621 25.9999 26.377 25.2781 25 24.0859C23.6229 25.2783 21.8371 26 19.8848 26C15.5302 25.9997 12.0001 22.4179 12 18C12 13.582 15.5301 10.0003 19.8848 10C21.837 10 23.6229 10.7209 25 11.9131C26.377 10.721 28.1622 10.0001 30.1143 10Z" fill="#898E90"/>
<path opacity="0.5" d="M30.1143 10C34.4692 10 38 13.5818 38 18C37.9999 22.418 34.4691 26 30.1143 26C28.1621 25.9999 26.377 25.2781 25 24.0859C26.6946 22.6187 27.7704 20.4374 27.7705 18C27.7705 15.5624 26.6948 13.3804 25 11.9131C26.377 10.721 28.1622 10.0001 30.1143 10Z" fill="#B0B5B7"/>
<path d="M25 11.9116C26.6949 13.3789 27.7705 15.5609 27.7705 17.9985C27.7705 20.4359 26.6946 22.6172 25 24.0845C23.3053 22.6172 22.2295 20.436 22.2295 17.9985C22.2295 15.5608 23.305 13.3789 25 11.9116Z" fill="#B0B5B7"/>
</svg>
