<svg width="108" height="108" viewBox="0 0 108 108" fill="none" xmlns="http://www.w3.org/2000/svg">
<path d="M54 108C83.8234 108 108 83.8234 108 54C108 24.1766 83.8234 0 54 0C24.1766 0 0 24.1766 0 54C0 83.8234 24.1766 108 54 108Z" fill="#0D80BF"/>
<path d="M53.9997 87.1338C38.2544 87.1338 25.0588 76.0125 21.6334 61.1052H4.97339C8.59343 85.2408 29.1654 103.737 53.9997 103.737C78.834 103.737 99.4059 85.2408 103.026 61.1052H86.3465C82.9406 76.0125 69.7449 87.1338 53.9997 87.1338Z" fill="white"/>
<path d="M12.7683 72.4254L17.8908 70.0297L17.3454 68.8416L18.6504 68.2378L19.9749 71.062L13.5279 74.0615L12.7683 72.4254Z" fill="#0D80BF"/>
<path d="M20.7919 79.243C18.8442 80.509 17.1497 80.2558 16.059 78.5808C14.9488 76.8863 15.4163 75.2307 17.364 73.9647C19.3117 72.6987 21.0062 72.9519 22.0969 74.6464C23.1876 76.3409 22.7202 77.977 20.7919 79.243ZM18.3768 75.5229C17.0134 76.3994 16.6628 77.1005 17.1692 77.8601C17.6561 78.6003 18.4352 78.5808 19.7986 77.6848C21.162 76.8084 21.4931 76.1072 21.0062 75.3671C20.4998 74.6075 19.7402 74.6269 18.3768 75.5229Z" fill="#0D80BF"/>
<path d="M25.6824 84.618C23.9879 86.1956 22.2739 86.2541 20.9105 84.7738C19.5276 83.2935 19.7029 81.5796 21.3974 80.0019C23.0919 78.4243 24.8059 78.3658 26.1888 79.8656C27.5522 81.3458 27.3769 83.0598 25.6824 84.618ZM22.6634 81.3848C21.4753 82.495 21.2416 83.2351 21.8649 83.8973C22.4687 84.5596 23.2283 84.3843 24.4164 83.2741C25.6045 82.1639 25.8187 81.4237 25.2149 80.781C24.5917 80.1188 23.8515 80.2746 22.6634 81.3848Z" fill="#0D80BF"/>
<path d="M33.6888 86.216L35.0328 87.1509L26.8134 90.092L25.4695 89.1571L33.6888 86.216ZM30.3388 86.4692C29.5792 87.5599 28.4884 87.7937 27.4951 87.112C26.5018 86.4303 26.3265 85.3006 27.0861 84.2099C27.8457 83.1192 28.9364 82.8854 29.9492 83.5866C30.9426 84.2878 31.0984 85.398 30.3388 86.4692ZM28.021 84.8526C27.5925 85.4759 27.5925 86.0213 28.0405 86.3329C28.4884 86.6445 29.0143 86.4498 29.4428 85.8265C29.8713 85.2032 29.8713 84.6578 29.4233 84.3462C28.9754 84.0541 28.4495 84.2294 28.021 84.8526ZM33.4551 92.1371C32.6955 93.2278 31.6048 93.481 30.592 92.7798C29.5986 92.0786 29.4428 90.9684 30.2024 89.8777C30.962 88.787 32.0528 88.5533 33.0656 89.2545C34.0394 89.9362 34.1952 91.0464 33.4551 92.1371ZM31.1179 90.501C30.6894 91.1243 30.6894 91.6891 31.1373 92.0007C31.5853 92.3124 32.1112 92.1176 32.5397 91.4943C32.9682 90.8711 32.9682 90.3257 32.5202 90.0141C32.0722 89.7024 31.5464 89.8972 31.1179 90.501Z" fill="#0D80BF"/>
<path d="M43.5814 94.3558L42.6854 96.9658C41.7895 97.219 40.5429 97.1995 39.5886 96.8879C37.5435 96.1867 36.5112 94.1805 37.1734 92.2328C37.8356 90.2851 39.9197 89.3502 42.0427 90.0903C43.036 90.4409 43.9709 91.1811 44.4384 92.0186L43.075 92.8561C42.7439 92.2328 42.1595 91.7264 41.5363 91.5122C40.4261 91.1421 39.2964 91.7069 38.9069 92.8366C38.5173 93.9858 39.0821 95.1349 40.1923 95.5245C40.5429 95.6413 41.0299 95.6608 41.4973 95.6024L42.1011 93.8689L43.5814 94.3558Z" fill="#0D80BF"/>
<path d="M51.2 96.2071C50.9273 98.0574 49.525 99.0702 47.5578 98.7781C45.5711 98.4859 44.4804 97.142 44.7531 95.2917L45.3374 91.2209L47.1293 91.4742L46.545 95.5449C46.4086 96.4993 46.9345 97.1615 47.7915 97.2978C48.629 97.4147 49.2912 96.9083 49.4276 95.9734L50.0119 91.9026L51.7843 92.1559L51.2 96.2071Z" fill="#0D80BF"/>
<path d="M54.2367 97.8828L53.7693 99.2072L51.9189 99.2851L54.6847 92.0591L56.535 91.9812L59.8072 98.954L57.879 99.0319L57.3141 97.7464L54.2367 97.8828ZM55.6391 93.8121L54.7042 96.4804L56.7493 96.4025L55.6391 93.8121Z" fill="#0D80BF"/>
<path d="M63.9959 95.9927L63.9375 96.0122L62.613 96.3238L63.061 98.2715L61.3081 98.6806L59.7109 91.7662L62.8078 91.0455C64.6387 90.617 65.8852 91.2598 66.2358 92.7985C66.489 93.8502 66.2163 94.7267 65.4957 95.311L67.4823 97.2587L65.4957 97.7262L63.9959 95.9927ZM63.6258 94.6293C64.3855 94.454 64.736 93.9671 64.5802 93.227C64.4049 92.5063 63.879 92.2336 63.1194 92.4089L61.795 92.7205L62.3014 94.9215L63.6258 94.6293Z" fill="#0D80BF"/>
<path d="M70.1501 94.8044L70.2086 96.2068L68.5141 96.9469L68.4751 89.2145L70.1696 88.4744L75.7596 93.7722L73.9871 94.5512L72.9938 93.5579L70.1501 94.8044ZM69.9748 90.5195L70.0917 93.3437L71.9615 92.5256L69.9748 90.5195Z" fill="#0D80BF"/>
<path d="M81.1154 90.1495L75.9345 88.416L78.4275 91.9998L77.0447 92.9737L72.9934 87.15L74.2984 86.2346L79.4793 87.9681L76.9862 84.3648L78.3691 83.4104L82.4203 89.2341L81.1154 90.1495Z" fill="#0D80BF"/>
<path d="M82.4225 81.4622L86.3958 85.4745L85.1104 86.7405L81.137 82.7282L79.6373 84.228L78.605 83.1957L82.9094 78.9302L83.9417 79.9625L82.4225 81.4622Z" fill="#0D80BF"/>
<path d="M85.345 78.0159L86.4746 78.8534L88.4808 76.1266L89.6299 76.9641L87.6238 79.6909L88.7729 80.5285L91.0518 77.4121L92.2009 78.2496L88.8703 82.8268L83.144 78.6392L86.4357 74.1594L87.5848 74.9969L85.345 78.0159Z" fill="#0D80BF"/>
<path d="M88.9232 72.4636L90.1892 73.0868L91.7085 70.0679L92.9745 70.7106L91.4552 73.7296L92.7407 74.3723L94.4742 70.9249L95.7402 71.5676L93.2082 76.6317L86.8586 73.4569L89.3517 68.4902L90.6177 69.133L88.9232 72.4636Z" fill="#0D80BF"/>
<path d="M19.2136 44.3978L13.4289 43.3071L17.8502 46.0144L17.4217 48.3127L12.3187 49.2282L18.1034 50.3189L17.5386 53.3573L6.98193 51.3901L7.66363 47.7089L13.6042 46.4429L8.52063 43.1123L9.20233 39.4312L19.7589 41.3983L19.2136 44.3978Z" fill="#FEFEFE"/>
<path d="M22.0334 27.141C24.7407 28.8355 25.403 32.1856 23.6111 35.0682C21.7997 37.9703 18.5081 38.8467 15.8007 37.1522C13.0934 35.4577 12.4701 32.1466 14.2815 29.2445C16.0929 26.3424 19.3456 25.4659 22.0334 27.141ZM17.729 34.0554C18.9755 34.8344 20.4752 34.5033 21.118 33.4516C21.7607 32.4193 21.3712 30.9974 20.1247 30.2184C18.8781 29.4393 17.4563 29.712 16.8135 30.7442C16.1513 31.8155 16.4824 33.2763 17.729 34.0554Z" fill="#FEFEFE"/>
<path d="M33.5668 24.3362L26.8472 22.6417L30.2362 26.9461L27.7042 28.9328L21.0625 20.4992L23.3998 18.6683L30.1389 20.3823L26.7304 16.0389L29.2624 14.0522L35.9041 22.5053L33.5668 24.3362Z" fill="#FEFEFE"/>
<path d="M38.4565 12.8253L38.885 14.0718L43.6179 12.3968L44.5139 14.9483L39.7809 16.6233L40.2289 17.8893L45.5851 16.0001L46.4811 18.5516L37.7748 21.6095L34.2104 11.4814L42.7804 8.4624L43.6763 11.0139L38.4565 12.8253Z" fill="#FEFEFE"/>
<path d="M54.9331 18.0254L51.3882 18.1033L51.3103 14.8311L47.1812 7.46878L50.726 7.39087L52.9853 11.4811L54.972 7.29348L58.5169 7.21558L54.8551 14.7143L54.9331 18.0254Z" fill="#FEFEFE"/>
<path d="M73.3616 11.5005C75.7379 12.5328 76.8286 14.1883 76.1663 15.6881C75.7379 16.6619 74.725 17.2073 73.5954 17.0709C74.6471 17.85 74.9977 19.1745 74.4524 20.4015C73.7122 22.0766 71.6866 22.4856 69.2909 21.4338L64.071 19.1355L68.395 9.29956L73.3616 11.5005ZM68.356 18.1811L69.9142 18.8628C70.518 19.1355 71.0439 18.9992 71.2581 18.5123C71.4529 18.0838 71.1802 17.6163 70.5764 17.3631L69.0182 16.6814L68.356 18.1811ZM69.9726 14.5194L71.5308 15.2011C71.9788 15.3959 72.4073 15.2401 72.5826 14.8116C72.7578 14.3831 72.5826 13.9936 72.1346 13.7988L70.5764 13.1171L69.9726 14.5194Z" fill="#FEFEFE"/>
<path d="M78.0143 25.1743L76.573 25.9144L73.9241 23.4213L84.5586 18.6494L87.227 21.1425L83.0978 31.9913L80.3321 29.4008L80.9748 27.9205L78.0143 25.1743ZM83.4094 22.428L80.4294 23.9472L82.0655 25.4664L83.4094 22.428Z" fill="#FEFEFE"/>
<path d="M95.9161 37.211L92.7998 36.5683C93.2672 35.5944 93.2867 34.4648 92.8972 33.7441C92.2739 32.6144 90.93 32.2833 89.6835 32.965C88.4174 33.6467 87.95 34.9712 88.5733 36.1008C88.9433 36.7825 89.8198 37.3863 90.8131 37.659L89.8782 40.5027C88.1642 40.0742 86.5476 38.8861 85.7491 37.4253C84.1714 34.5427 85.0868 31.3095 87.8916 29.7708C90.6573 28.2516 93.8516 29.3033 95.4682 32.2638C96.2667 33.7246 96.442 35.6723 95.9161 37.211Z" fill="#FEFEFE"/>
<path d="M92.9567 46.5795L91.6323 45.7615L89.1392 46.19L88.5354 42.6841L99.1115 40.8337L99.7153 44.3396L96.0536 44.9824L100.28 47.4949L100.981 51.5267L96.0731 48.5077L90.4247 53.5913L89.6846 49.4037L92.9567 46.5795Z" fill="#FEFEFE"/>
<path d="M53.9977 82.4215C69.6942 82.4215 82.4188 69.6969 82.4188 54.0004C82.4188 38.3039 69.6942 25.5793 53.9977 25.5793C38.3012 25.5793 25.5767 38.3039 25.5767 54.0004C25.5767 69.6969 38.3012 82.4215 53.9977 82.4215Z" fill="white"/>
<path d="M52.1692 76.2136C53.5198 77.0321 55.1828 77.0321 56.5334 76.2136C61.3506 73.2941 72.4698 65.3978 72.4698 54.7107V42.2552C72.4698 40.1733 71.1798 38.3093 69.2314 37.5758L56.113 32.6371C54.9775 32.2096 53.7252 32.2096 52.5897 32.6371L39.4713 37.5758C37.5229 38.3093 36.2329 40.1733 36.2329 42.2552V54.7107C36.2329 65.3978 47.3521 73.2941 52.1692 76.2136Z" fill="#0D80BF"/>
<path d="M47.6038 53.6447L53.0511 59.6842L63.9459 47.6052" stroke="white" stroke-width="7" stroke-linecap="round" stroke-linejoin="round"/>
</svg>
