<svg width="75" height="36" viewBox="0 0 75 36" fill="none" xmlns="http://www.w3.org/2000/svg">
<rect width="75" height="36" rx="6" fill="#FAFAFA"/>
<path fill-rule="evenodd" clip-rule="evenodd" d="M18.1202 11H14.1533C13.8818 11 13.6509 11.2032 13.6086 11.4792L12.0042 21.9585C11.9723 22.1653 12.1277 22.3517 12.3313 22.3517H14.2252C14.4967 22.3517 14.7275 22.1485 14.7699 21.8719L15.2026 19.0455C15.2443 18.7687 15.4758 18.5658 15.7467 18.5658H17.0025C19.6157 18.5658 21.1237 17.2631 21.5178 14.6817C21.6952 13.5523 21.5253 12.665 21.0118 12.0433C20.4481 11.3611 19.4479 11 18.1202 11ZM18.5779 14.8274C18.361 16.2938 17.2734 16.2938 16.2218 16.2938H15.6231L16.0431 13.5551C16.068 13.3897 16.2072 13.2678 16.3697 13.2678H16.644C17.3604 13.2678 18.0362 13.2678 18.3855 13.6884C18.5935 13.9395 18.6574 14.3122 18.5779 14.8274ZM29.9785 14.7804H28.0788C27.9169 14.7804 27.7771 14.9023 27.7521 15.068L27.6681 15.6152L27.5352 15.417C27.124 14.802 26.207 14.5965 25.2917 14.5965C23.1923 14.5965 21.3994 16.2344 21.0502 18.532C20.8687 19.678 21.1267 20.7738 21.7578 21.5382C22.3368 22.2408 23.1651 22.5337 24.1506 22.5337C25.8419 22.5337 26.7801 21.4132 26.7801 21.4132L26.6953 21.9571C26.6633 22.165 26.8188 22.3514 27.0212 22.3514H28.7324C29.0046 22.3514 29.2341 22.1482 29.2771 21.8717L30.3038 15.1736C30.3363 14.9676 30.1814 14.7804 29.9785 14.7804ZM27.3304 18.5893C27.1471 19.7073 26.2857 20.4578 25.1872 20.4578C24.6356 20.4578 24.1946 20.2755 23.9117 19.9302C23.6309 19.5873 23.524 19.0989 23.6134 18.5553C23.7847 17.4467 24.6606 16.6718 25.7424 16.6718C26.2816 16.6718 26.7203 16.8563 27.0091 17.2047C27.2985 17.5567 27.4133 18.0478 27.3304 18.5893ZM38.1868 14.7801H40.0959C40.3633 14.7801 40.5192 15.089 40.3673 15.3149L34.0181 24.7561C33.9153 24.909 33.7459 25 33.565 25H31.6583C31.3899 25 31.2331 24.6886 31.3885 24.4622L33.3655 21.5874L31.2629 15.2306C31.1902 15.0096 31.3485 14.7801 31.5767 14.7801H33.4525C33.6962 14.7801 33.9113 14.9449 33.9816 15.1852L35.0975 19.0245L37.7305 15.0293C37.8336 14.8733 38.0048 14.7801 38.1868 14.7801Z" fill="#898E90"/>
<path fill-rule="evenodd" clip-rule="evenodd" d="M58.8829 21.959L60.511 11.2881C60.5359 11.1225 60.6752 11.0006 60.8371 11H62.67C62.8724 11 63.0278 11.1869 62.9958 11.3938L61.3903 21.8725C61.3485 22.149 61.1176 22.3523 60.8457 22.3523H59.2088C59.0064 22.3523 58.851 22.1659 58.8829 21.959ZM46.4145 11.0006H42.4469C42.176 11.0006 41.9452 11.2038 41.9027 11.4798L40.2983 21.959C40.2664 22.1659 40.4218 22.3523 40.6245 22.3523H42.6603C42.8495 22.3523 43.0114 22.2101 43.0409 22.0166L43.4962 19.0461C43.538 18.7693 43.7694 18.5663 44.0403 18.5663H45.2954C47.9092 18.5663 49.417 17.2636 49.8113 14.6822C49.9892 13.5529 49.8183 12.6655 49.305 12.0439C48.7416 11.3617 47.7422 11.0006 46.4145 11.0006ZM46.8722 14.828C46.6559 16.2944 45.5682 16.2944 44.5159 16.2944H43.9179L44.3385 13.5557C44.3635 13.3903 44.5014 13.2683 44.6644 13.2683H44.9387C45.6546 13.2683 46.3311 13.2683 46.68 13.6889C46.8883 13.94 46.9517 14.3128 46.8722 14.828ZM58.2717 14.781H56.3733C56.2101 14.781 56.0716 14.9029 56.0472 15.0685L55.9632 15.6158L55.8298 15.4175C55.4185 14.8025 54.5021 14.5971 53.5868 14.5971C51.4874 14.5971 49.695 16.2349 49.3458 18.5326C49.1649 19.6785 49.4218 20.7744 50.0529 21.5387C50.6329 22.2414 51.4602 22.5342 52.4457 22.5342C54.137 22.5342 55.0749 21.4137 55.0749 21.4137L54.9904 21.9577C54.9584 22.1656 55.1139 22.352 55.3176 22.352H57.0281C57.2989 22.352 57.5298 22.1487 57.5722 21.8722L58.5995 15.1742C58.6309 14.9682 58.4754 14.781 58.2717 14.781ZM55.6239 18.5898C55.4416 19.7078 54.5792 20.4583 53.4805 20.4583C52.9299 20.4583 52.4881 20.2761 52.2049 19.9307C51.9241 19.5878 51.8186 19.0995 51.9069 18.5558C52.079 17.4472 52.9538 16.6724 54.0356 16.6724C54.5751 16.6724 55.0135 16.8568 55.3026 17.2053C55.593 17.5573 55.7079 18.0484 55.6239 18.5898Z" fill="#898E90"/>
</svg>
