<svg width="62" height="36" viewBox="0 0 62 36" fill="none" xmlns="http://www.w3.org/2000/svg">
<rect width="61.999" height="36" rx="6" fill="#FAFAFA"/>
<path d="M38.083 13.6641C39.9304 13.6641 41.6721 15.2464 41.6826 18.1504C41.6824 21.3244 39.9618 22.7666 38.0723 22.7666C37.1436 22.7665 36.5841 22.3961 36.2041 22.1357L36.1934 24.9688L33.5547 25.5V13.8242H35.877L36.0137 14.4453C36.3831 14.1249 37.0485 13.6641 38.083 13.6641ZM15.5684 13.6641C16.4445 13.6641 17.3104 13.7936 18.1865 14.124V16.4775C17.3843 16.067 16.3706 15.837 15.5684 15.8369C15.0089 15.8369 14.6709 15.9874 14.6709 16.3779C14.6719 17.4989 18.6924 16.9687 18.7031 19.9521C18.7031 21.7446 17.1938 22.7764 14.998 22.7764C14.0902 22.7764 13.098 22.6056 12.1162 22.2051V19.8223C13.0029 20.2829 14.1219 20.623 14.998 20.623C15.5891 20.623 16.0116 20.4731 16.0117 20.0127C16.0117 18.8211 12.0004 19.2614 12 16.498C12 14.7256 13.4254 13.6641 15.5684 13.6641ZM21.7949 13.834H23.8008V15.9668H21.7949V19.5225C21.7952 21.0039 23.4628 20.5433 23.8008 20.4131V22.4463C23.4524 22.6265 22.8186 22.7764 21.9531 22.7764C20.391 22.7762 19.2198 21.6849 19.2197 20.2031L19.2305 12.1816L21.8057 11.6611L21.7949 13.834ZM46.1885 13.6641C48.6902 13.6642 49.999 15.6866 49.999 18.25C49.999 18.4903 49.9775 19.0114 49.9775 19.1416H44.8154C44.9317 20.323 45.8404 20.6631 46.8643 20.6631C47.9091 20.663 48.7325 20.4527 49.4502 20.1123V22.1152C48.7324 22.4957 47.7824 22.7666 46.5264 22.7666C43.9507 22.7666 42.1554 21.2443 42.1553 18.2305C42.1553 15.687 43.676 13.6641 46.1885 13.6641ZM32.5732 22.5967H29.9229V13.835H32.5732V22.5967ZM27.085 14.5752C27.7078 13.4937 28.9425 13.7138 29.2803 13.834V16.1367C28.9529 16.0266 27.8972 15.8864 27.2744 16.6572V22.5957H24.6357V13.834H26.916L27.085 14.5752ZM37.4502 15.8867C36.8485 15.8867 36.4678 16.0866 36.1934 16.377L36.2041 20.0928C36.4575 20.3531 36.8274 20.5635 37.4502 20.5635C38.4213 20.5634 39.0762 19.5615 39.0762 18.2197C39.0761 16.9081 38.4107 15.8868 37.4502 15.8867ZM46.1768 15.6963C45.5118 15.6964 44.7832 16.1674 44.7832 17.2988H47.5068C47.5068 16.1673 46.8207 15.6963 46.1768 15.6963ZM32.5732 12.5322L29.9229 13.0732V11.0303L32.5732 10.5V12.5322Z" fill="#898E90"/>
</svg>
