<svg width="62" height="36" viewBox="0 0 62 36" fill="none" xmlns="http://www.w3.org/2000/svg">
<rect width="62" height="36" rx="6" fill="#FAFAFA"/>
<path fill-rule="evenodd" clip-rule="evenodd" d="M21.5008 23.9091H18.212L15.7458 14.5999C15.6287 14.1716 15.3802 13.7931 15.0146 13.6146C14.1022 13.1662 13.0968 12.8094 12 12.6294V12.271H17.298C18.0292 12.271 18.5776 12.8094 18.669 13.4347L19.9486 20.1497L23.2358 12.271H26.4332L21.5008 23.9091ZM28.2613 23.9091H25.1553L27.7129 12.271H30.8189L28.2613 23.9091ZM34.8383 15.4925C34.9297 14.8657 35.4781 14.5073 36.1179 14.5073C37.1233 14.4173 38.2185 14.5973 39.1325 15.0441L39.6809 12.5384C38.7669 12.18 37.7615 12 36.8491 12C33.8345 12 31.6409 13.6121 31.6409 15.8494C31.6409 17.5514 33.1947 18.4451 34.2915 18.9835C35.4781 19.5203 35.9351 19.8787 35.8437 20.4156C35.8437 21.2208 34.9297 21.5792 34.0173 21.5792C32.9205 21.5792 31.8237 21.3108 30.8199 20.8624L30.2715 23.3697C31.3683 23.8166 32.5549 23.9965 33.6517 23.9965C37.0319 24.085 39.1325 22.4745 39.1325 20.0572C39.1325 17.013 34.8383 16.8346 34.8383 15.4925ZM49.9999 23.9091L47.5337 12.271H44.8847C44.3363 12.271 43.7879 12.6294 43.6051 13.1662L39.0383 23.9091H42.2357L42.8739 22.2086H46.8025L47.1681 23.9091H49.9999ZM45.3445 15.4028L46.2569 19.789H43.6993L45.3445 15.4028Z" fill="#898E90"/>
</svg>
